<?xml version="1.0" encoding="UTF-8" standalone="no"?>
<!-- Created with Inkscape (http://www.inkscape.org/) -->

<svg
   xmlns:dc="http://purl.org/dc/elements/1.1/"
   xmlns:cc="http://creativecommons.org/ns#"
   xmlns:rdf="http://www.w3.org/1999/02/22-rdf-syntax-ns#"
   xmlns:svg="http://www.w3.org/2000/svg"
   xmlns="http://www.w3.org/2000/svg"
   xmlns:sodipodi="http://sodipodi.sourceforge.net/DTD/sodipodi-0.dtd"
   xmlns:inkscape="http://www.inkscape.org/namespaces/inkscape"
   id="svg3336"
   version="1.1"
   inkscape:version="0.91 r13725"
   xml:space="preserve"
   width="1156.3751"
   height="336.32831"
   viewBox="0 0 1156.3751 336.32831"
   sodipodi:docname="SkillSesh_Logo_min.svg"
   inkscape:export-filename="C:\Users\John C\Desktop\SkillSesh_Logo3d.png"
   inkscape:export-xdpi="107.03827"
   inkscape:export-ydpi="107.03827"><metadata
     id="metadata3342"><rdf:RDF><cc:Work
         rdf:about=""><dc:format>image/svg+xml</dc:format><dc:type
           rdf:resource="http://purl.org/dc/dcmitype/StillImage" /><dc:title></dc:title></cc:Work></rdf:RDF></metadata><defs
     id="defs3340"><clipPath
       clipPathUnits="userSpaceOnUse"
       id="clipPath3350"><path
         d="M 0,612 1008,612 1008,0 0,0 0,612 Z"
         id="path3352"
         inkscape:connector-curvature="0" /></clipPath></defs><sodipodi:namedview
     pagecolor="#ffffff"
     bordercolor="#666666"
     borderopacity="1"
     objecttolerance="10"
     gridtolerance="10"
     guidetolerance="10"
     inkscape:pageopacity="0"
     inkscape:pageshadow="2"
     inkscape:window-width="1280"
     inkscape:window-height="738"
     id="namedview3338"
     showgrid="false"
     inkscape:zoom="0.75686275"
     inkscape:cx="567.40132"
     inkscape:cy="114.41225"
     inkscape:window-x="-8"
     inkscape:window-y="-8"
     inkscape:window-maximized="1"
     inkscape:current-layer="g3344"
     fit-margin-top="-40"
     fit-margin-left="0"
     fit-margin-right="0"
     fit-margin-bottom="0" /><g
     id="g3344"
     inkscape:groupmode="layer"
     inkscape:label="SkillSesh_BrandStyle"
     transform="matrix(1.25,0,0,-1.25,-22.574151,604.41607)"><g
       id="g3346"
       transform="translate(-345.6373,43.001566)"
       inkscape:export-xdpi="107.03827"
       inkscape:export-ydpi="107.03827"
       inkscape:export-filename="C:\Users\John C\Documents\GitHub\theantiego.github.io\pics\SkillSesh_Logo3d.png"><g
         id="g3348"
         clip-path="url(#clipPath3350)"><g
           id="g3354"
           transform="translate(435.8249,439.1368)"><path
             d="m 0,0 c -0.172,1.021 1.066,1.664 1.796,0.93 3.466,-3.488 43.356,-46.92 54.08,-58.805 2.792,-3.094 2.989,-1.7 3.918,1.173 6.015,18.599 18.866,57.057 19.144,57.728 0.217,0.526 1.485,0.487 1.628,-0.105 2.046,-8.482 11.457,-47.526 13.799,-58.632 0.736,-3.491 2.04,-2.398 3.636,-1.16 10.857,8.417 33.006,25.634 33.275,25.759 0.727,0.336 1.53,-0.254 1.488,-1.054 -0.007,-0.132 -4.943,-38.72 -5.375,-42.484 -0.217,-1.89 -0.029,-2.536 2.288,-1.659 25.641,9.701 77.373,28.914 77.549,28.949 0.949,0.191 1.623,-0.927 1.029,-1.691 -0.501,-0.643 -60.642,-58.525 -60.887,-59.036 -0.276,-0.576 0.022,-1.267 0.631,-1.46 0.408,-0.13 53.515,-10.683 54.339,-10.969 0.073,-0.026 0.147,-0.052 0.219,-0.079 0.697,-0.262 0.931,-1.168 0.413,-1.703 -0.143,-0.148 -46.888,-19.026 -55.853,-22.708 -0.42,-0.173 -0.775,-1.916 -0.437,-2.312 6.084,-7.134 30.795,-35.36 36.945,-42.442 0.363,-0.418 -0.543,-1.587 -1.161,-1.436 -15.15,3.703 -50.586,12.111 -53.173,12.534 -0.738,0.121 -1.366,-0.542 -1.205,-1.272 0.561,-2.555 10.836,-38.704 15.334,-54.246 0.013,-0.043 0.024,-0.086 0.034,-0.129 0.229,-0.959 -0.926,-1.706 -1.681,-1.073 -0.005,0.005 -0.011,0.01 -0.016,0.014 -11.944,10.14 -41.803,35.129 -44.674,37.616 -1.685,1.46 -2.087,1.371 -2.597,-0.935 -2.485,-11.232 -15.088,-66.268 -15.141,-66.383 -0.363,-0.783 -1.495,-0.8 -1.893,-0.035 -0.074,0.143 -18.029,64.952 -18.591,66.643 -0.24,0.725 -1.143,0.968 -1.711,0.458 -1.184,-1.062 -52.482,-54.841 -52.698,-55.006 -0.742,-0.564 -1.811,0.019 -1.71,0.945 0.039,0.361 21.898,68.334 22.907,71.368 0.779,2.342 0.078,3.345 -2.43,2.967 -13.39,-2.018 -41.418,-6.019 -42.054,-5.92 -0.732,0.113 -1.138,0.914 -0.778,1.562 0.226,0.408 17.634,22.851 26.143,33.637 2.067,2.62 -0.243,3.127 -1.732,3.382 -7.902,1.353 -72.641,11.667 -76.367,12.3 -0.684,0.116 -0.759,1.478 -0.123,1.654 22.473,6.198 72.731,20.33 75.452,20.667 4.43,0.548 4.045,2.136 1.813,5.094 -11.441,15.166 -34.741,46.755 -34.986,47.356 -0.31,0.759 0.321,1.568 1.133,1.453 0.659,-0.093 51.145,-19.096 52.509,-19.366 0.758,-0.151 1.417,0.535 1.235,1.287 C 25.19,-75.489 0.109,-0.644 0,0"
             style="fill:none;fill-opacity:1;fill-rule:nonzero;stroke:none"
             id="path3356"
             inkscape:connector-curvature="0" /></g><g
           id="g3358"
           transform="translate(600.2747,340.9852)"><path
             d="m 0,0 c -2.11,3.473 -5.462,5.868 -9.438,6.744 -2.467,0.544 -5.041,0.424 -7.416,-0.315 l 0.315,4.497 0.005,0.072 -0.007,0.072 c -0.548,6.158 -4.913,11.366 -10.863,12.961 -2.668,0.714 -5.498,0.66 -8.088,-0.127 l 0.385,4.054 -0.003,0.072 c -0.316,6.378 -4.702,11.782 -10.913,13.447 -1.249,0.335 -2.535,0.504 -3.82,0.504 -4.969,0 -9.578,-2.502 -12.331,-6.694 l -1.34,-2.759 c -1.727,1.924 -3.913,3.336 -6.4,4.124 -2.542,0.804 -5.237,0.918 -7.868,0.286 l -1.232,1.029 c -3.634,3.034 -8.229,4.705 -12.938,4.706 -1.752,0 -3.505,-0.232 -5.21,-0.689 -0.294,-0.078 -0.587,-0.163 -0.879,-0.256 -0.951,-0.301 -1.887,-0.678 -2.79,-1.122 -3.811,4.938 -9.726,7.861 -15.995,7.861 -1.746,0 -3.49,-0.23 -5.184,-0.684 -1.26,-0.337 -2.487,-0.799 -3.662,-1.378 -1.65,2.141 -3.746,3.956 -6.104,5.282 -4.559,2.562 -10.032,3.25 -15.081,1.895 -5.114,-1.37 -9.415,-4.631 -12.114,-9.182 -1.195,-2.015 -2.021,-4.175 -2.46,-6.432 -1.163,-0.049 -2.327,-0.2 -3.469,-0.452 -0.3,-0.067 -0.597,-0.139 -0.889,-0.218 -5.201,-1.393 -9.549,-4.729 -12.242,-9.393 -2.693,-4.664 -3.407,-10.097 -2.013,-15.298 l 12.184,-45.472 c -3.064,-0.012 -6.019,-0.394 -8.785,-1.136 -4.414,-1.182 -10.625,-3.894 -15.144,-10.098 -3.537,-4.852 -4.992,-10.759 -3.891,-15.801 1.447,-6.626 6.947,-11.079 13.687,-11.079 0.781,0 1.579,0.061 2.376,0.182 0.564,-0.088 3.564,-0.778 10.245,-5.973 6.368,-4.952 13.245,-11.784 17.796,-16.305 5.753,-5.714 12.191,-10.717 18.593,-14.449 4.406,-2.774 9.185,-4.893 14.188,-6.294 3.682,-1.105 7.32,-1.77 10.816,-1.975 l 12.924,-0.757 7.354,-1.163 c 3.069,-1.582 6.321,-2.839 9.669,-3.735 4.121,-1.105 8.353,-1.664 12.579,-1.664 21.892,0 41.143,14.785 46.828,35.999 l 11.246,41.97 c 0,0 8.958,33.433 9.022,33.666 C 2.694,-7.55 2.111,-3.475 0,0"
             style="fill:none;fill-opacity:1;fill-rule:nonzero;stroke:none"
             id="path3360"
             inkscape:connector-curvature="0" /></g><g
           id="g3362"
           transform="translate(597.093,330.8039)"><path
             d="m 0,0 c 1.432,5.343 -1.866,10.839 -7.327,12.043 -5.138,1.133 -10.217,-2.204 -11.578,-7.286 l -8.917,-33.277 c -0.206,-0.771 -0.951,-1.334 -1.738,-1.195 -0.881,0.156 -1.421,1.026 -1.195,1.871 l 12.315,45.961 -0.034,0.009 c 0.964,4.977 -2.064,9.924 -7.037,11.256 -4.973,1.333 -10.069,-1.437 -11.723,-6.229 l -0.034,0.009 -12.287,-45.858 c -0.207,-0.772 -0.952,-1.335 -1.739,-1.196 -0.881,0.156 -1.421,1.026 -1.195,1.871 l 15.318,57.166 -0.013,0.004 c 1.226,5.117 -1.833,10.309 -6.947,11.679 -5.113,1.37 -10.359,-1.597 -11.856,-6.641 l -0.012,0.003 -15.29,-57.062 c -0.207,-0.772 -0.952,-1.335 -1.738,-1.196 -0.881,0.156 -1.422,1.026 -1.195,1.871 l 12.369,46.164 c 1.362,5.082 -1.368,10.511 -6.383,12.099 -5.332,1.688 -10.936,-1.423 -12.368,-6.766 l -16.603,-61.965 c -0.061,-0.228 -0.358,-0.295 -0.503,-0.11 -1.443,1.834 -2.746,4.4 -4.384,5.889 -18.966,17.239 -35.204,-0.486 -26.011,-3.9 9.194,-3.414 15.418,-25.926 19.306,-40.248 1.844,-6.791 4.527,-13.557 7.964,-19.539 1.98,-3.785 4.515,-7.272 7.524,-10.339 2.045,-2.18 4.242,-4.081 6.586,-5.625 l 0.029,0.107 c 3.913,-2.652 8.321,-4.715 13.145,-6.008 23.204,-6.217 47.054,7.553 53.272,30.757 l 0,-0.001 0.022,0.081 11.236,41.933 c 0,0 9.007,33.617 9.021,33.668"
             style="fill:#5493e0;fill-opacity:1;fill-rule:nonzero;stroke:none"
             id="path3364"
             inkscape:connector-curvature="0" /></g><g
           id="g3366"
           transform="translate(503.0542,230.6892)"><path
             d="M 0,0 C -0.784,0.723 -1.556,1.483 -2.311,2.286 -3.154,3.147 -3.96,4.038 -4.733,4.956 -6.559,4.859 -8.375,4.877 -10.17,5.007 l 0.028,-0.108 c -2.801,0.165 -5.655,0.714 -8.516,1.578 -4.14,1.152 -8.078,2.905 -11.686,5.193 -5.967,3.462 -11.674,7.98 -16.666,12.939 -10.528,10.459 -27.174,26.843 -36.843,25.203 -7.591,-1.288 -6.018,12.901 7.129,16.424 3.598,0.964 8.064,1.129 13.446,-0.042 2.164,-0.47 4.575,-2.041 6.742,-2.907 0.059,-0.024 0.12,-0.026 0.175,-0.012 0.144,0.039 0.249,0.193 0.205,0.358 l -16.603,61.965 c -1.393,5.2 1.692,10.544 6.891,11.937 0.144,0.038 0.29,0.074 0.436,0.106 5.138,1.133 10.216,-2.204 11.578,-7.285 l 12.37,-46.165 c 0.212,-0.791 1.016,-1.261 1.807,-1.069 0.316,0.56 0.695,1.107 1.122,1.639 -0.008,0.104 -0.024,0.209 -0.051,0.312 l -15.277,57.066 c -1.226,5.117 1.833,10.309 6.946,11.68 5.114,1.37 10.359,-1.597 11.856,-6.642 L -19.84,90.348 c 0.883,-0.189 1.809,-0.439 2.774,-0.763 0.235,0.378 0.315,0.858 0.193,1.311 l -12.287,45.858 0.034,0.009 c -0.964,4.978 2.064,9.924 7.037,11.257 4.973,1.332 10.069,-1.438 11.723,-6.23 l 10.59,-39.407 1.56,5.821 -5.839,21.793 c -1.362,5.081 1.368,10.51 6.383,12.098 0.144,0.046 0.287,0.087 0.431,0.126 3.033,0.813 6.109,0.093 8.428,-1.673 1.012,1.54 2.315,2.852 3.821,3.877 -3.662,3.057 -8.703,4.352 -13.65,3.026 -0.222,-0.059 -0.443,-0.124 -0.664,-0.194 -2.323,-0.735 -4.345,-1.989 -5.977,-3.598 -2.621,7.421 -10.596,11.63 -18.207,9.591 -2.581,-0.692 -4.84,-2.027 -6.641,-3.791 -1.223,3.47 -3.64,6.35 -6.869,8.165 -3.468,1.948 -7.495,2.454 -11.338,1.425 -3.843,-1.03 -7.078,-3.482 -9.107,-6.903 -1.694,-2.858 -2.394,-6.13 -2.033,-9.383 -2.26,0.612 -4.688,0.702 -7.12,0.166 -0.226,-0.05 -0.45,-0.105 -0.671,-0.164 -3.912,-1.048 -7.181,-3.556 -9.206,-7.064 -2.025,-3.507 -2.562,-7.592 -1.514,-11.504 l 14.027,-52.352 c -5.129,0.893 -9.886,0.767 -14.164,-0.379 -3.635,-0.974 -8.736,-3.19 -12.398,-8.213 -2.708,-3.716 -3.846,-8.123 -3.046,-11.791 1.09,-4.991 5.458,-7.865 10.622,-6.988 0.938,0.159 4.707,0.124 13.871,-7.001 6.604,-5.134 13.613,-12.097 18.251,-16.705 5.474,-5.438 11.584,-10.184 17.674,-13.729 4.024,-2.54 8.392,-4.478 12.984,-5.762 3.32,-0.999 6.586,-1.599 9.708,-1.783 l 7.49,-0.441 -0.156,0.582 C -2.08,-0.281 -1.039,-0.151 0,0"
             style="fill:#5493e0;fill-opacity:1;fill-rule:nonzero;stroke:none"
             id="path3368"
             inkscape:connector-curvature="0" /></g></g></g><flowRoot
       xml:space="preserve"
       id="flowRoot3398"
       style="font-style:normal;font-variant:normal;font-weight:normal;font-stretch:normal;font-size:40px;line-height:125%;font-family:Montserrat;-inkscape-font-specification:Montserrat;letter-spacing:0px;word-spacing:0px;fill:#000000;fill-opacity:1;stroke:none;stroke-width:1px;stroke-linecap:butt;stroke-linejoin:miter;stroke-opacity:1"
       inkscape:export-xdpi="107.03827"
       inkscape:export-ydpi="107.03827"
       inkscape:export-filename="C:\Users\John C\Documents\GitHub\theantiego.github.io\pics\SkillSesh_Logo3d.png"><flowRegion
         id="flowRegion3400"><rect
           id="rect3402"
           width="261.60623"
           height="126.83938"
           x="247.07254"
           y="499.43005"
           style="font-style:normal;font-variant:normal;font-weight:normal;font-stretch:normal;font-family:Montserrat;-inkscape-font-specification:Montserrat" /></flowRegion><flowPara
         id="flowPara3404" /></flowRoot><flowRoot
       xml:space="preserve"
       id="flowRoot3406"
       style="font-style:normal;font-weight:normal;font-size:40px;line-height:125%;font-family:sans-serif;letter-spacing:0px;word-spacing:0px;fill:#000000;fill-opacity:1;stroke:none;stroke-width:1px;stroke-linecap:butt;stroke-linejoin:miter;stroke-opacity:1"
       inkscape:export-xdpi="107.03827"
       inkscape:export-ydpi="107.03827"
       inkscape:export-filename="C:\Users\John C\Documents\GitHub\theantiego.github.io\pics\SkillSesh_Logo3d.png"><flowRegion
         id="flowRegion3408"><rect
           id="rect3410"
           width="309.17099"
           height="182.3316"
           x="184.97409"
           y="479.61139" /></flowRegion><flowPara
         id="flowPara3412" /></flowRoot><text
       xml:space="preserve"
       style="font-style:normal;font-weight:normal;font-size:130px;line-height:125%;font-family:sans-serif;letter-spacing:0px;word-spacing:0px;fill:#000000;fill-opacity:1;stroke:none;stroke-width:1px;stroke-linecap:butt;stroke-linejoin:miter;stroke-opacity:1"
       x="262.13467"
       y="-289.61658"
       id="text3414"
       sodipodi:linespacing="125%"
       transform="scale(1,-1)"
       inkscape:export-xdpi="107.03827"
       inkscape:export-ydpi="107.03827"
       inkscape:export-filename="C:\Users\John C\Documents\GitHub\theantiego.github.io\pics\SkillSesh_Logo3d.png"><tspan
         sodipodi:role="line"
         id="tspan3416"
         x="262.13467"
         y="-289.61658"
         style="font-style:normal;font-variant:normal;font-weight:bold;font-stretch:normal;font-size:144px;font-family:Montserrat;-inkscape-font-specification:'Montserrat Bold';letter-spacing:4.80000019px"><tspan
           style="font-style:normal;font-variant:normal;font-weight:bold;font-stretch:normal;font-family:Montserrat;-inkscape-font-specification:'Montserrat Bold';letter-spacing:4.80000019px;fill:#5493e0;fill-opacity:1"
           id="tspan4231">Skill</tspan><tspan
           style="font-style:normal;font-variant:normal;font-weight:bold;font-stretch:normal;font-family:Montserrat;-inkscape-font-specification:'Montserrat Bold';letter-spacing:4.80000019px;fill:#0ddc6a;fill-opacity:1"
           id="tspan4237">Sesh</tspan></tspan></text>
<text
       xml:space="preserve"
       style="font-style:normal;font-weight:normal;font-size:32px;line-height:125%;font-family:sans-serif;letter-spacing:0px;word-spacing:0px;opacity:0;fill:#4585c8;fill-opacity:1;stroke:none;stroke-width:1px;stroke-linecap:butt;stroke-linejoin:miter;stroke-opacity:1"
       x="403.77203"
       y="-306.5285"
       id="text3418"
       sodipodi:linespacing="125%"
       transform="scale(1,-1)"
       inkscape:export-xdpi="107.03827"
       inkscape:export-ydpi="107.03827"
       inkscape:export-filename="C:\Users\John C\Documents\GitHub\theantiego.github.io\pics\SkillSesh_Logo3d.png"><tspan
         sodipodi:role="line"
         id="tspan3420"
         x="403.77203"
         y="-306.5285" /></text>
</g></svg>